# xmcd
#
# Track frame offsets: 
#        150
#        19442
#        44621
#        67358
#        91319
#        109135
#        126259
#        143944
#        213763
#        232324
#        269202
#        284951
#        318771
#
# Disc length: 4657 seconds
#
# Revision: 1
# Processed by: cddbd v1.5.2PL0 Copyright (c) Steve Scherf et al.
# Submitted via: ExactAudioCopyFreeDBPlugin 1.0
#
DISCID=df122f0d
DTITLE=Meshuggah - Chaosphere {2008,RM,Nuclear Blast,NB 2203-2}
DYEAR=1998
DGENRE=Metal
TTITLE0=Concatenation
TTITLE1=New Millennium Cyanide Christ
TTITLE2=Corridor of Chameleons
TTITLE3=Neurotica
TTITLE4=The Mouth Licking What You've Bled
TTITLE5=Sane
TTITLE6=The Exquisite Machinery of Torture
TTITLE7=Elastic
TTITLE8=Sane (Demo Version)
TTITLE9=Future Breed Machine (Mayhem Version)
TTITLE10=Futile Bread Machine (Campfire Version)
TTITLE11=Future Breed Machine (Quant's Quantastical O La La)
TTITLE12=Future Breed Machine (Remix)
EXTD=
EXTT0=
EXTT1=
EXTT2=
EXTT3=
EXTT4=
EXTT5=
EXTT6=
EXTT7=
EXTT8=
EXTT9=
EXTT10=
EXTT11=
EXTT12=
PLAYORDER=
